<svg width="1200" height="630" viewBox="0 0 1200 630" fill="none" xmlns="http://www.w3.org/2000/svg">
  <!-- 背景 -->
  <rect width="1200" height="630" fill="#fff4da"/>
  
  <!-- 棋盤背景與陰影 -->
  <g filter="url(#boardShadow)">
    <rect x="400" y="165" width="400" height="400" rx="5" fill="white" stroke="#0F172A" stroke-width="4"/>
  </g>
  
  <!-- 棋盤格線 -->
  <!-- 垂直線 -->
  <line x1="457" y1="165" x2="457" y2="565" stroke="#D1D1D1" stroke-width="1"/>
  <line x1="514" y1="165" x2="514" y2="565" stroke="#D1D1D1" stroke-width="1"/>
  <line x1="571" y1="165" x2="571" y2="565" stroke="#D1D1D1" stroke-width="1"/>
  <line x1="628" y1="165" x2="628" y2="565" stroke="#D1D1D1" stroke-width="1"/>
  <line x1="685" y1="165" x2="685" y2="565" stroke="#D1D1D1" stroke-width="1"/>
  <line x1="742" y1="165" x2="742" y2="565" stroke="#D1D1D1" stroke-width="1"/>
  
  <!-- 水平線 -->
  <line x1="400" y1="222" x2="800" y2="222" stroke="#D1D1D1" stroke-width="1"/>
  <line x1="400" y1="279" x2="800" y2="279" stroke="#D1D1D1" stroke-width="1"/>
  <line x1="400" y1="336" x2="800" y2="336" stroke="#D1D1D1" stroke-width="1"/>
  <line x1="400" y1="393" x2="800" y2="393" stroke="#D1D1D1" stroke-width="1"/>
  <line x1="400" y1="450" x2="800" y2="450" stroke="#D1D1D1" stroke-width="1"/>
  <line x1="400" y1="507" x2="800" y2="507" stroke="#D1D1D1" stroke-width="1"/>
  
  <!-- 棋子 - 放在格子內而非格子上，位置在 2,2、2,5、5,2 和 5,5 (往內移一格) -->
  <!-- 紅色棋子 (2,2) -->
  <circle cx="485.5" cy="250.5" r="20" fill="#FF9999"/>
  
  <!-- 藍色棋子 (2,5) -->
  <circle cx="485.5" cy="479" r="20" fill="#99CCFF"/>
  
  <!-- 藍色棋子 (5,2) -->
  <circle cx="714" cy="250.5" r="20" fill="#99CCFF"/>
  
  <!-- 紅色棋子 (5,5) -->
  <circle cx="714" cy="479" r="20" fill="#FF9999"/>
  
  <!-- 標題 -->
  <text x="600" y="80" text-anchor="middle" font-family="Arial, sans-serif" font-weight="bold" font-size="48" fill="#0F172A">圍棋圍牆</text>
  
  <!-- 副標題 -->
  <text x="600" y="120" text-anchor="middle" font-family="Arial, sans-serif" font-size="32" fill="#334155">QUORIDOR</text>
  
  <!-- 陰影濾鏡 -->
  <defs>
    <filter id="boardShadow" x="390" y="155" width="420" height="420" filterUnits="userSpaceOnUse" color-interpolation-filters="sRGB">
      <feFlood flood-opacity="0" result="BackgroundImageFix"/>
      <feColorMatrix in="SourceAlpha" type="matrix" values="0 0 0 0 0 0 0 0 0 0 0 0 0 0 0 0 0 0 127 0" result="hardAlpha"/>
      <feOffset dy="4"/>
      <feGaussianBlur stdDeviation="5"/>
      <feComposite in2="hardAlpha" operator="out"/>
      <feColorMatrix type="matrix" values="0 0 0 0 0 0 0 0 0 0 0 0 0 0 0 0 0 0 0.25 0"/>
      <feBlend mode="normal" in="SourceGraphic" in2="effect1_dropShadow_1_2" result="shape"/>
    </filter>
  </defs>
</svg>
